<?xml version="1.0" encoding="UTF-8" standalone="no"?>
<svg
   version="1.1"
   width="200"
   height="201"
   overflow="visible"
   id="svg3"
   sodipodi:docname="logo.svg"
   inkscape:version="1.3.2 (091e20ef0f, 2023-11-25, custom)"
   xmlns:inkscape="http://www.inkscape.org/namespaces/inkscape"
   xmlns:sodipodi="http://sodipodi.sourceforge.net/DTD/sodipodi-0.dtd"
   xmlns="http://www.w3.org/2000/svg"
   xmlns:svg="http://www.w3.org/2000/svg">
  <defs
     id="defs3" />
  <sodipodi:namedview
     id="namedview3"
     pagecolor="#ffffff"
     bordercolor="#000000"
     borderopacity="0.25"
     inkscape:showpageshadow="2"
     inkscape:pageopacity="0.0"
     inkscape:pagecheckerboard="0"
     inkscape:deskcolor="#d1d1d1"
     inkscape:zoom="0.96"
     inkscape:cx="500"
     inkscape:cy="500"
     inkscape:window-width="3530"
     inkscape:window-height="1378"
     inkscape:window-x="0"
     inkscape:window-y="0"
     inkscape:window-maximized="1"
     inkscape:current-layer="SvgjsG1071" />
  <g
     class="signage-logo"
     opacity="1"
     id="g3">
    <defs
       id="SvgjsDefs1070" />
    <g
       id="SvgjsG1071"
       transform="scale(0.55536246)"
       opacity="1">
      <g
         id="SvgjsG1072"
         class="VU7r99XS8n"
         transform="matrix(1.58112,0,0,1.58112,93.968342,52.518254)"
         light-content="false"
         non-strokable="false"
         fill="#0b87da">
        <rect
           width="100"
           height="100"
           rx="10"
           id="rect1"
           x="0"
           y="0" />
      </g>
      <g
         id="SvgjsG1073"
         class="rLB6mOyOiK"
         transform="matrix(2.687904,0,0,2.687904,130.01788,88.56779)"
         light-content="true"
         non-strokable="false"
         fill="#ffffff">
        <path
           d="M 2.83,18.247 29.17,9.123 2.83,0 Z M 29.17,32 V 13.753 L 2.83,22.877 Z"
           id="path1" />
      </g>
      <g
         id="SvgjsG1074"
         class="text"
         transform="translate(171.34434,272.39025)"
         light-content="false"
         fill="#0b87da">
        <path
           d="m -130.08,0 h 10.32 v -14.28 h 12.96 v -8.64 h -12.96 v -7.44 h 15.12 V -39 h -25.44 z m 46.56,0.72 c 1.16,0 2.15,-0.08 2.97,-0.24 0.82,-0.16 1.51,-0.36 2.07,-0.6 l -1.2,-7.56 c -0.24,0.08 -0.43,0.12 -0.57,0.12 h -0.51 c -0.36,0 -0.73,-0.18 -1.11,-0.54 -0.38,-0.36 -0.57,-1.06 -0.57,-2.1 v -31.56 h -10.32 v 31.2 c 0,1.68 0.15,3.21 0.45,4.59 0.3,1.38 0.81,2.57 1.53,3.57 0.72,1 1.67,1.77 2.85,2.31 1.18,0.54 2.65,0.81 4.41,0.81 z m 22.44,0 c 1.64,0 3.13,-0.33 4.47,-0.99 1.34,-0.66 2.61,-1.53 3.81,-2.61 h 0.24 L -51.84,0 h 8.4 v -16.68 c 0,-4.92 -1.11,-8.49 -3.33,-10.71 -2.22,-2.22 -5.27,-3.33 -9.15,-3.33 -2.36,0 -4.62,0.34 -6.78,1.02 -2.16,0.68 -4.3,1.66 -6.42,2.94 l 3.6,6.72 c 1.56,-0.84 2.94,-1.47 4.14,-1.89 1.2,-0.42 2.34,-0.63 3.42,-0.63 2.56,0 3.96,1.04 4.2,3.12 -5.76,0.6 -9.92,1.79 -12.48,3.57 -2.56,1.78 -3.84,4.23 -3.84,7.35 0,1.24 0.2,2.42 0.6,3.54 0.4,1.12 0.99,2.1 1.77,2.94 0.78,0.84 1.73,1.51 2.85,2.01 1.12,0.5 2.38,0.75 3.78,0.75 z m 3.6,-7.92 c -1.84,0 -2.76,-0.72 -2.76,-2.16 0,-0.84 0.46,-1.62 1.38,-2.34 0.92,-0.72 2.62,-1.26 5.1,-1.62 v 4.08 c -0.56,0.6 -1.11,1.09 -1.65,1.47 -0.54,0.38 -1.23,0.57 -2.07,0.57 z m 37.68,19.56 c 2.68,0 5.09,-0.26 7.23,-0.78 2.14,-0.52 3.96,-1.26 5.46,-2.22 1.5,-0.96 2.66,-2.11 3.48,-3.45 0.82,-1.34 1.23,-2.83 1.23,-4.47 0,-2.76 -1.03,-4.75 -3.09,-5.97 -2.06,-1.22 -4.97,-1.83 -8.73,-1.83 h -4.5 c -1.52,0 -2.6,-0.13 -3.24,-0.39 -0.64,-0.26 -0.96,-0.73 -0.96,-1.41 0,-0.44 0.04,-0.77 0.12,-0.99 0.08,-0.22 0.28,-0.47 0.6,-0.75 1.24,0.28 2.36,0.42 3.36,0.42 1.68,0 3.26,-0.19 4.74,-0.57 1.48,-0.38 2.76,-0.97 3.84,-1.77 1.08,-0.8 1.94,-1.83 2.58,-3.09 0.64,-1.26 0.96,-2.77 0.96,-4.53 0,-0.6 -0.05,-1.18 -0.15,-1.74 -0.1,-0.56 -0.21,-1.02 -0.33,-1.38 h 4.32 V -30 h -11.16 c -1.44,-0.48 -3.04,-0.72 -4.8,-0.72 -1.64,0 -3.23,0.22 -4.77,0.66 -1.54,0.44 -2.91,1.11 -4.11,2.01 -1.2,0.9 -2.16,2.04 -2.88,3.42 -0.72,1.38 -1.08,2.99 -1.08,4.83 0,1.76 0.41,3.3 1.23,4.62 0.82,1.32 1.77,2.34 2.85,3.06 v 0.24 c -1.04,0.72 -1.86,1.58 -2.46,2.58 -0.6,1 -0.9,2.02 -0.9,3.06 0,1.28 0.26,2.32 0.78,3.12 0.52,0.8 1.18,1.48 1.98,2.04 v 0.24 c -2.8,1.48 -4.2,3.4 -4.2,5.76 0,1.36 0.34,2.51 1.02,3.45 0.68,0.94 1.59,1.71 2.73,2.31 1.14,0.6 2.47,1.03 3.99,1.29 1.52,0.26 3.14,0.39 4.86,0.39 z m 0.96,-27.96 c -0.96,0 -1.74,-0.34 -2.34,-1.02 -0.6,-0.68 -0.9,-1.74 -0.9,-3.18 0,-1.4 0.3,-2.43 0.9,-3.09 0.6,-0.66 1.38,-0.99 2.34,-0.99 0.96,0 1.74,0.33 2.34,0.99 0.6,0.66 0.9,1.69 0.9,3.09 0,1.44 -0.3,2.5 -0.9,3.18 -0.6,0.68 -1.38,1.02 -2.34,1.02 z M -18.12,6 C -19.88,6 -21.3,5.78 -22.38,5.34 -23.46,4.9 -24,4.2 -24,3.24 c 0,-0.44 0.09,-0.82 0.27,-1.14 0.18,-0.32 0.45,-0.66 0.81,-1.02 0.44,0.12 0.97,0.21 1.59,0.27 0.62,0.06 1.53,0.09 2.73,0.09 h 2.34 c 1.28,0 2.27,0.1 2.97,0.3 0.7,0.2 1.05,0.7 1.05,1.5 0,0.84 -0.56,1.51 -1.68,2.01 -1.12,0.5 -2.52,0.75 -4.2,0.75 z m 35.4,-5.28 c 2.08,0 3.92,-0.25 5.52,-0.75 1.6,-0.5 2.94,-1.2 4.02,-2.1 1.08,-0.9 1.9,-1.96 2.46,-3.18 0.56,-1.22 0.84,-2.53 0.84,-3.93 0,-1.36 -0.23,-2.53 -0.69,-3.51 -0.46,-0.98 -1.06,-1.82 -1.8,-2.52 -0.74,-0.7 -1.57,-1.29 -2.49,-1.77 -0.92,-0.48 -1.82,-0.88 -2.7,-1.2 -0.76,-0.28 -1.48,-0.53 -2.16,-0.75 -0.68,-0.22 -1.28,-0.45 -1.8,-0.69 -0.52,-0.24 -0.93,-0.5 -1.23,-0.78 -0.3,-0.28 -0.45,-0.62 -0.45,-1.02 0,-1.12 0.88,-1.68 2.64,-1.68 0.92,0 1.9,0.22 2.94,0.66 1.04,0.44 2.1,1.06 3.18,1.86 l 4.56,-6.12 c -1.32,-1 -2.87,-1.91 -4.65,-2.73 -1.78,-0.82 -3.91,-1.23 -6.39,-1.23 -1.76,0 -3.37,0.23 -4.83,0.69 -1.46,0.46 -2.71,1.11 -3.75,1.95 -1.04,0.84 -1.85,1.86 -2.43,3.06 -0.58,1.2 -0.87,2.54 -0.87,4.02 0,1.24 0.23,2.33 0.69,3.27 0.46,0.94 1.05,1.77 1.77,2.49 0.72,0.72 1.53,1.33 2.43,1.83 0.9,0.5 1.79,0.93 2.67,1.29 0.76,0.32 1.48,0.6 2.16,0.84 0.68,0.24 1.29,0.49 1.83,0.75 0.54,0.26 0.97,0.54 1.29,0.84 0.32,0.3 0.48,0.65 0.48,1.05 0,0.6 -0.23,1.05 -0.69,1.35 -0.46,0.3 -1.23,0.45 -2.31,0.45 -2.16,0 -4.6,-1 -7.32,-3 l -4.56,6.36 c 1.56,1.28 3.41,2.3 5.55,3.06 2.14,0.76 4.17,1.14 6.09,1.14 z m 30,0 c 1.76,0 3.2,-0.6 4.32,-1.8 1.12,-1.2 1.68,-2.68 1.68,-4.44 0,-1.76 -0.56,-3.24 -1.68,-4.44 -1.12,-1.2 -2.56,-1.8 -4.32,-1.8 -1.76,0 -3.2,0.6 -4.32,1.8 -1.12,1.2 -1.68,2.68 -1.68,4.44 0,1.76 0.56,3.24 1.68,4.44 1.12,1.2 2.56,1.8 4.32,1.8 z m 30,11.64 c 2.68,0 5.09,-0.26 7.23,-0.78 2.14,-0.52 3.96,-1.26 5.46,-2.22 1.5,-0.96 2.66,-2.11 3.48,-3.45 0.82,-1.34 1.23,-2.83 1.23,-4.47 0,-2.76 -1.03,-4.75 -3.09,-5.97 -2.06,-1.22 -4.97,-1.83 -8.73,-1.83 h -4.5 c -1.52,0 -2.6,-0.13 -3.24,-0.39 -0.64,-0.26 -0.96,-0.73 -0.96,-1.41 0,-0.44 0.04,-0.77 0.12,-0.99 0.08,-0.22 0.28,-0.47 0.6,-0.75 1.24,0.28 2.36,0.42 3.36,0.42 1.68,0 3.26,-0.19 4.74,-0.57 1.48,-0.38 2.76,-0.97 3.84,-1.77 1.08,-0.8 1.94,-1.83 2.58,-3.09 0.64,-1.26 0.96,-2.77 0.96,-4.53 0,-0.6 -0.05,-1.18 -0.15,-1.74 -0.1,-0.56 -0.21,-1.02 -0.33,-1.38 H 94.2 V -30 H 83.04 c -1.44,-0.48 -3.04,-0.72 -4.8,-0.72 -1.64,0 -3.23,0.22 -4.77,0.66 -1.54,0.44 -2.91,1.11 -4.11,2.01 -1.2,0.9 -2.16,2.04 -2.88,3.42 -0.72,1.38 -1.08,2.99 -1.08,4.83 0,1.76 0.41,3.3 1.23,4.62 0.82,1.32 1.77,2.34 2.85,3.06 v 0.24 c -1.04,0.72 -1.86,1.58 -2.46,2.58 -0.6,1 -0.9,2.02 -0.9,3.06 0,1.28 0.26,2.32 0.78,3.12 0.52,0.8 1.18,1.48 1.98,2.04 v 0.24 c -2.8,1.48 -4.2,3.4 -4.2,5.76 0,1.36 0.34,2.51 1.02,3.45 0.68,0.94 1.59,1.71 2.73,2.31 1.14,0.6 2.47,1.03 3.99,1.29 1.52,0.26 3.14,0.39 4.86,0.39 z m 0.96,-27.96 c -0.96,0 -1.74,-0.34 -2.34,-1.02 -0.6,-0.68 -0.9,-1.74 -0.9,-3.18 0,-1.4 0.3,-2.43 0.9,-3.09 0.6,-0.66 1.38,-0.99 2.34,-0.99 0.96,0 1.74,0.33 2.34,0.99 0.6,0.66 0.9,1.69 0.9,3.09 0,1.44 -0.3,2.5 -0.9,3.18 -0.6,0.68 -1.38,1.02 -2.34,1.02 z M 78.96,6 C 77.2,6 75.78,5.78 74.7,5.34 73.62,4.9 73.08,4.2 73.08,3.24 c 0,-0.44 0.09,-0.82 0.27,-1.14 0.18,-0.32 0.45,-0.66 0.81,-1.02 0.44,0.12 0.97,0.21 1.59,0.27 0.62,0.06 1.53,0.09 2.73,0.09 h 2.34 c 1.28,0 2.27,0.1 2.97,0.3 0.7,0.2 1.05,0.7 1.05,1.5 0,0.84 -0.56,1.51 -1.68,2.01 C 82.04,5.75 80.64,6 78.96,6 Z m 37.08,6.36 c 2.68,0 5.09,-0.26 7.23,-0.78 2.14,-0.52 3.96,-1.26 5.46,-2.22 1.5,-0.96 2.66,-2.11 3.48,-3.45 0.82,-1.34 1.23,-2.83 1.23,-4.47 0,-2.76 -1.03,-4.75 -3.09,-5.97 -2.06,-1.22 -4.97,-1.83 -8.73,-1.83 h -4.5 c -1.52,0 -2.6,-0.13 -3.24,-0.39 -0.64,-0.26 -0.96,-0.73 -0.96,-1.41 0,-0.44 0.04,-0.77 0.12,-0.99 0.08,-0.22 0.28,-0.47 0.6,-0.75 1.24,0.28 2.36,0.42 3.36,0.42 1.68,0 3.26,-0.19 4.74,-0.57 1.48,-0.38 2.76,-0.97 3.84,-1.77 1.08,-0.8 1.94,-1.83 2.58,-3.09 0.64,-1.26 0.96,-2.77 0.96,-4.53 0,-0.6 -0.05,-1.18 -0.15,-1.74 -0.1,-0.56 -0.21,-1.02 -0.33,-1.38 h 4.32 V -30 H 121.8 c -1.44,-0.48 -3.04,-0.72 -4.8,-0.72 -1.64,0 -3.23,0.22 -4.77,0.66 -1.54,0.44 -2.91,1.11 -4.11,2.01 -1.2,0.9 -2.16,2.04 -2.88,3.42 -0.72,1.38 -1.08,2.99 -1.08,4.83 0,1.76 0.41,3.3 1.23,4.62 0.82,1.32 1.77,2.34 2.85,3.06 v 0.24 c -1.04,0.72 -1.86,1.58 -2.46,2.58 -0.6,1 -0.9,2.02 -0.9,3.06 0,1.28 0.26,2.32 0.78,3.12 0.52,0.8 1.18,1.48 1.98,2.04 v 0.24 c -2.8,1.48 -4.2,3.4 -4.2,5.76 0,1.36 0.34,2.51 1.02,3.45 0.68,0.94 1.59,1.71 2.73,2.31 1.14,0.6 2.47,1.03 3.99,1.29 1.52,0.26 3.14,0.39 4.86,0.39 z M 117,-15.6 c -0.96,0 -1.74,-0.34 -2.34,-1.02 -0.6,-0.68 -0.9,-1.74 -0.9,-3.18 0,-1.4 0.3,-2.43 0.9,-3.09 0.6,-0.66 1.38,-0.99 2.34,-0.99 0.96,0 1.74,0.33 2.34,0.99 0.6,0.66 0.9,1.69 0.9,3.09 0,1.44 -0.3,2.5 -0.9,3.18 -0.6,0.68 -1.38,1.02 -2.34,1.02 z M 117.72,6 c -1.76,0 -3.18,-0.22 -4.26,-0.66 -1.08,-0.44 -1.62,-1.14 -1.62,-2.1 0,-0.44 0.09,-0.82 0.27,-1.14 0.18,-0.32 0.45,-0.66 0.81,-1.02 0.44,0.12 0.97,0.21 1.59,0.27 0.62,0.06 1.53,0.09 2.73,0.09 h 2.34 c 1.28,0 2.27,0.1 2.97,0.3 0.7,0.2 1.05,0.7 1.05,1.5 0,0.84 -0.56,1.51 -1.68,2.01 C 120.8,5.75 119.4,6 117.72,6 Z"
           id="path2" />
      </g>
      <rect
         id="SvgjsRect1075"
         width="258.41956"
         height="2"
         fill="#474747"
         light-content="false"
         x="41.264343"
         y="306.98026"
         style="stroke-width:1.88498" />
    </g>
  </g>
</svg>
